<svg width="30" height="30" viewBox="0 0 30 30" fill="none" xmlns="http://www.w3.org/2000/svg">
<path d="M13.9407 0.054863C8.61705 0.439489 3.87692 3.62468 1.54896 8.3724C0.803055 9.9049 0.387993 11.2271 0.135346 12.9158C-0.0451154 14.1298 -0.0451154 15.8967 0.135346 17.1106C0.387993 18.7994 0.797039 20.1095 1.55498 21.654C3.7927 26.2215 8.19597 29.3105 13.3451 29.9235C14.7106 30.0858 16.7017 29.9836 18.1575 29.6771C20.3591 29.2143 22.6149 28.1386 24.4496 26.6602C25.1112 26.1313 26.2061 25.0375 26.7053 24.4185C30.3747 19.8271 31.0364 13.5228 28.4017 8.25822C27.0241 5.51175 24.7202 3.16793 21.9772 1.74361C20.0583 0.739977 18.1635 0.211117 15.9318 0.0488529C15.0054 -0.0172558 14.9091 -0.0172558 13.9407 0.054863ZM17.0145 10.6201C17.3273 10.7643 17.6822 11.1609 17.7665 11.4614C17.8086 11.6297 17.8266 12.8136 17.8146 15.1574L17.7965 18.6071L17.6161 18.8655C17.5138 19.0097 17.3153 19.208 17.1709 19.3102L16.9123 19.4905L12.509 19.5085L8.09972 19.5206L7.77489 19.3523C7.57037 19.2501 7.38389 19.0878 7.2696 18.9256L7.08914 18.6672V15.0132V11.3593L7.2696 11.0948C7.38991 10.9266 7.56435 10.7823 7.77489 10.6681L8.10574 10.5059H12.4368C16.5032 10.5059 16.792 10.5179 17.0145 10.6201ZM22.7893 11.3172L22.9397 11.4614V14.9952C22.9337 17.6755 22.9156 18.553 22.8615 18.6251C22.7713 18.7453 22.5547 18.8595 22.4224 18.8595C22.3201 18.8595 19.4207 17.7717 19.1801 17.6395C18.9154 17.5013 18.9154 17.5013 18.9094 15.0072C18.9094 12.8196 18.9154 12.6093 19.0177 12.4951C19.144 12.3449 22.1637 11.173 22.4464 11.167C22.5788 11.167 22.6931 11.215 22.7893 11.3172Z" fill="#007AFF"/>
</svg>
