<svg width="24" height="24" viewBox="0 0 24 24" fill="none" xmlns="http://www.w3.org/2000/svg">
<path d="M10.1621 3C14.1175 3.00006 17.3242 6.20668 17.3242 10.1621C17.3242 11.7811 16.7867 13.2751 15.8809 14.4746L21 19.5928L19.5928 21L14.4746 15.8809C13.2751 16.7867 11.7811 17.3242 10.1621 17.3242C6.20668 17.3242 3.00006 14.1175 3 10.1621C3 6.20664 6.20664 3 10.1621 3ZM10.1621 4.98926C7.30538 4.98926 4.98926 7.30538 4.98926 10.1621C4.98932 13.0188 7.30542 15.335 10.1621 15.335C13.0187 15.3349 15.3349 13.0187 15.335 10.1621C15.335 7.30542 13.0188 4.98932 10.1621 4.98926Z" fill="#0065F2"/>
</svg>
